<?xml version="1.0" standalone="no"?><!DOCTYPE svg PUBLIC "-//W3C//DTD SVG 1.1//EN" "http://www.w3.org/Graphics/SVG/1.1/DTD/svg11.dtd"><svg t="1682653474002" class="icon" viewBox="0 0 1024 1024" version="1.1" xmlns="http://www.w3.org/2000/svg" p-id="5617" xmlns:xlink="http://www.w3.org/1999/xlink" width="200" height="200"><path d="M528.85504 788.25856l357.52832-357.52832c9.30688-9.30944 9.30688-24.40064 0-33.7088-9.30816-9.30688-24.40064-9.30688-33.7088 0L512 737.696 171.32544 397.02144c-9.30688-9.30688-24.40064-9.30688-33.70752 0-4.65536 4.65536-6.98112 10.75328-6.98112 16.85376 0 6.10176 2.32576 12.19968 6.98112 16.85504l357.5296 357.52832C504.45568 797.56672 519.5456 797.56672 528.85504 788.25856zM595.06432 508.38016c-4.85504 0-9.71008-1.8432-13.42592-5.53472-7.46368-7.41376-7.50592-19.47648-0.09216-26.94272l200.74624-202.13248c7.41376-7.46624 19.47904-7.50592 26.94272-0.09344 7.46496 7.41376 7.5072 19.47776 0.09216 26.94272L608.58112 502.75328C604.8576 506.50112 599.96032 508.38016 595.06432 508.38016zM512 592.01664c-4.89856 0-9.79328-1.87776-13.51808-5.62688L214.67392 300.61952c-7.41376-7.46624-7.3728-19.52896 0.09344-26.94272 7.46624-7.41376 19.52768-7.37152 26.94272 0.09344l283.808 285.77024c7.41504 7.46624 7.3728 19.52896-0.09216 26.94272C521.7088 590.17216 516.85376 592.01664 512 592.01664z" p-id="5618"></path></svg>